<svg width="47" height="47" viewBox="0 0 47 47" fill="none" xmlns="http://www.w3.org/2000/svg">
<circle cx="23.6576" cy="23.6575" r="22.6562" fill="#F7F7F7"/>
<path d="M46.1362 23.4797C46.1362 19.4046 45.0371 15.4049 42.9546 11.902C40.8721 8.39909 37.8834 5.52273 34.3033 3.57595C30.7232 1.62916 26.6843 0.684024 22.6122 0.840111C18.54 0.996199 14.5853 2.24773 11.1648 4.46285C7.74422 6.67797 4.98445 9.77467 3.17622 13.4267C1.36798 17.0787 0.578238 21.1508 0.890183 25.214C1.20213 29.2772 2.60422 33.1811 4.94873 36.5143C7.29324 39.8475 10.4934 42.4866 14.212 44.1536L15.7135 40.8042C12.5974 39.4072 9.91569 37.1957 7.95102 34.4025C5.98635 31.6093 4.81142 28.338 4.55002 24.9331C4.28861 21.5281 4.95041 18.1158 6.46568 15.0554C7.98096 11.9951 10.2936 9.40007 13.16 7.54383C16.0264 5.68759 19.3403 4.63882 22.7528 4.50802C26.1652 4.37722 29.5497 5.16923 32.5498 6.80062C35.5498 8.432 38.0544 10.8423 39.7994 13.7777C41.5445 16.7131 42.4656 20.0648 42.4656 23.4797H46.1362Z" fill="#FF6634"/>
<path d="M11.2436 23.4102C11.781 22.8642 12.1623 22.4309 12.3876 22.1102C12.6216 21.7809 12.7386 21.4645 12.7386 21.1612C12.7386 20.8579 12.639 20.6065 12.4396 20.4072C12.2403 20.1992 11.9846 20.0952 11.6726 20.0952C11.1006 20.0952 10.559 20.5025 10.0476 21.3172L8.42264 20.3552C8.84731 19.6965 9.31097 19.1982 9.81364 18.8602C10.325 18.5222 10.9706 18.3532 11.7506 18.3532C12.5393 18.3532 13.2283 18.6045 13.8176 19.1072C14.4156 19.6012 14.7146 20.2772 14.7146 21.1352C14.7146 21.6032 14.5933 22.0539 14.3506 22.4872C14.1166 22.9119 13.679 23.4579 13.0376 24.1252L11.3996 25.8282H14.9876V27.6482H8.57864V26.1402L11.2436 23.4102ZM22.2737 18.5612V20.3162H18.6857V21.8372C18.9544 21.7592 19.2621 21.7202 19.6087 21.7202C20.4841 21.7202 21.2381 21.9845 21.8707 22.5132C22.5034 23.0419 22.8197 23.7569 22.8197 24.6582C22.8197 25.5509 22.4904 26.2919 21.8317 26.8812C21.1817 27.4619 20.3757 27.7522 19.4137 27.7522C18.1831 27.7522 17.1561 27.2972 16.3327 26.3872L17.3987 24.9052C17.4767 24.9832 17.5807 25.0785 17.7107 25.1912C17.8407 25.3039 18.0791 25.4555 18.4257 25.6462C18.7724 25.8282 19.1191 25.9192 19.4657 25.9192C19.8124 25.9192 20.1201 25.8152 20.3887 25.6072C20.6574 25.3992 20.7917 25.0915 20.7917 24.6842C20.7917 24.2769 20.6444 23.9649 20.3497 23.7482C20.0637 23.5229 19.6911 23.4102 19.2317 23.4102C18.7724 23.4102 18.2394 23.5749 17.6327 23.9042L16.7877 22.9942V18.5612H22.2737ZM33.0989 18.5612L26.5859 27.6482H24.3499L30.8759 18.5612H33.0989ZM30.9149 26.4002C31.0189 26.5129 31.1489 26.5692 31.3049 26.5692C31.4609 26.5692 31.5909 26.5129 31.6949 26.4002C31.7989 26.2789 31.8509 26.1229 31.8509 25.9322C31.8509 25.7415 31.7989 25.5855 31.6949 25.4642C31.5909 25.3342 31.4609 25.2692 31.3049 25.2692C31.1575 25.2692 31.0319 25.3342 30.9279 25.4642C30.8239 25.5855 30.7719 25.7415 30.7719 25.9322C30.7719 26.1229 30.8195 26.2789 30.9149 26.4002ZM33.2289 25.9322C33.2289 26.4435 33.0469 26.8769 32.6829 27.2322C32.3189 27.5789 31.8595 27.7522 31.3049 27.7522C30.7589 27.7522 30.3039 27.5745 29.9399 27.2192C29.5759 26.8639 29.3939 26.4349 29.3939 25.9322C29.3939 25.4209 29.5759 24.9875 29.9399 24.6322C30.3039 24.2769 30.7589 24.0992 31.3049 24.0992C31.8595 24.0992 32.3189 24.2769 32.6829 24.6322C33.0469 24.9875 33.2289 25.4209 33.2289 25.9322ZM25.7929 21.0832C25.8969 21.1959 26.0269 21.2522 26.1829 21.2522C26.3389 21.2522 26.4689 21.1959 26.5729 21.0832C26.6769 20.9619 26.7289 20.8059 26.7289 20.6152C26.7289 20.4245 26.6769 20.2685 26.5729 20.1472C26.4689 20.0172 26.3389 19.9522 26.1829 19.9522C26.0355 19.9522 25.9099 20.0172 25.8059 20.1472C25.7019 20.2685 25.6499 20.4245 25.6499 20.6152C25.6499 20.8059 25.6975 20.9619 25.7929 21.0832ZM28.1069 20.6152C28.1069 21.1265 27.9249 21.5599 27.5609 21.9152C27.1969 22.2619 26.7375 22.4352 26.1829 22.4352C25.6369 22.4352 25.1819 22.2575 24.8179 21.9022C24.4539 21.5469 24.2719 21.1179 24.2719 20.6152C24.2719 20.1039 24.4539 19.6705 24.8179 19.3152C25.1819 18.9599 25.6369 18.7822 26.1829 18.7822C26.7375 18.7822 27.1969 18.9599 27.5609 19.3152C27.9249 19.6705 28.1069 20.1039 28.1069 20.6152Z" fill="black"/>
</svg>
