<svg width="18" height="18" viewBox="0 0 18 18" fill="none" xmlns="http://www.w3.org/2000/svg">
<path d="M5.20499 3.75002C5.20479 4.14784 5.04656 4.52929 4.76512 4.81046C4.48367 5.09162 4.10206 5.24947 3.70424 5.24927C3.30641 5.24907 2.92496 5.09084 2.6438 4.8094C2.36263 4.52795 2.20479 4.14634 2.20499 3.74852C2.20519 3.35069 2.36341 2.96924 2.64486 2.68808C2.9263 2.40691 3.30791 2.24907 3.70574 2.24927C4.10356 2.24947 4.48501 2.40769 4.76618 2.68914C5.04734 2.97058 5.20519 3.35219 5.20499 3.75002V3.75002ZM5.24999 6.36002H2.24999V15.75H5.24999V6.36002ZM9.98999 6.36002H7.00499V15.75H9.95999V10.8225C9.95999 8.07752 13.5375 7.82252 13.5375 10.8225V15.75H16.5V9.80252C16.5 5.17502 11.205 5.34752 9.95999 7.62002L9.98999 6.36002V6.36002Z" fill="white"/>
</svg>
